<svg xmlns="http://www.w3.org/2000/svg" viewBox="0 0 18.826 30.367" width="142.306" height="229.544"><path d="M.706 23.252l5.986 5.986a3.85 3.85 0 0 0 5.444 0l5.986-5.986c.452-.451.705-1.063.705-1.701V-.002H.001v21.553c0 .638.254 1.25.705 1.701"/><path d="M5.536 14.75l-1.731-1.731-1.731 1.731 1.731 1.731zm3.877.412l1.319 1.319 1.731-1.731-1.764-1.764a1.82 1.82 0 0 0-2.572 0L2.073 19.04l1.731 1.731zM9 22.5l-1.731-1.731-1.319 1.319-1.319-1.319-1.732 1.732 1.764 1.764a1.82 1.82 0 0 0 2.572 0zm.413 3.052l-1.319-1.319-1.732 1.732 1.765 1.765a1.82 1.82 0 0 0 2.572 0l1.765-1.765-1.732-1.732zm3.464-3.464l-1.319-1.319L9.827 22.5l1.765 1.765a1.82 1.82 0 0 0 2.572 0l1.764-1.764-1.732-1.732zm.413-3.048l1.732 1.732 1.731-1.731-1.732-1.732zm-3.877-.413l-1.319-1.319-1.731 1.731 1.764 1.764a1.82 1.82 0 0 0 2.572 0l6.054-6.054-1.732-1.732zm2.311-14.958l-2.309-2.31-2.309 2.31 2.309 2.309zm-5.19 5.256H8.19v3.278a2.41 2.41 0 0 1 2.449 0V8.925h1.656l1.085 1.085 2.309-2.309-2.309-2.309-1.085 1.085H6.534L5.449 5.392 3.14 7.701l2.309 2.309z" fill="#fff"/></svg>